<svg width="108" height="108" viewBox="0 0 108 108" fill="none" xmlns="http://www.w3.org/2000/svg">
<g clip-path="url(#clip0_2001_101)">
<path d="M35.7004 83.5H68.0104V79C68.0104 69.055 76.0654 61 86.0104 61H89.3404L80.7904 23.02C80.3345 21.0314 79.2193 19.2555 77.6261 17.981C76.033 16.7065 74.0556 16.0083 72.0154 16H54.5104V25H72.0154L78.3154 53.125H78.2704C73.4487 54.5783 69.1287 57.3494 65.7974 61.126C62.466 64.9026 60.2556 69.5346 59.4154 74.5H35.7004C34.6191 71.4337 32.466 68.8614 29.6379 67.2572C26.8098 65.6529 23.4972 65.1248 20.3104 65.77C15.0004 66.805 10.7254 71.17 9.73542 76.48C9.3661 78.4323 9.43198 80.442 9.92837 82.3659C10.4248 84.2898 11.3394 86.0806 12.6072 87.6105C13.875 89.1404 15.4646 90.3718 17.2628 91.2169C19.061 92.0621 21.0235 92.5002 23.0104 92.5C28.8604 92.5 33.8104 88.72 35.7004 83.5ZM23.0104 83.5C20.5354 83.5 18.5104 81.475 18.5104 79C18.5104 76.525 20.5354 74.5 23.0104 74.5C25.4854 74.5 27.5104 76.525 27.5104 79C27.5104 81.475 25.4854 83.5 23.0104 83.5ZM86.0104 65.5C78.5404 65.5 72.5104 71.53 72.5104 79C72.5104 86.47 78.5404 92.5 86.0104 92.5C93.4804 92.5 99.5104 86.47 99.5104 79C99.5104 71.53 93.4804 65.5 86.0104 65.5ZM86.0104 83.5C83.5354 83.5 81.5104 81.475 81.5104 79C81.5104 76.525 83.5354 74.5 86.0104 74.5C88.4854 74.5 90.5104 76.525 90.5104 79C90.5104 81.475 88.4854 83.5 86.0104 83.5Z" fill="#39AD26" fill-opacity="0.84"/>
<path d="M34.8872 40.6522C34.4894 40.6522 34.1079 40.7965 33.8265 41.0534C33.5452 41.3102 33.3872 41.6586 33.3872 42.0218V58.4566C33.3872 58.8198 33.5452 59.1681 33.8265 59.425C34.1079 59.6818 34.4894 59.8261 34.8872 59.8261H52.8872C53.285 59.8261 53.6666 59.6818 53.9479 59.425C54.2292 59.1681 54.3872 58.8198 54.3872 58.4566V42.0218C54.3872 41.6586 54.2292 41.3102 53.9479 41.0534C53.6666 40.7965 53.285 40.6522 52.8872 40.6522H34.8872ZM30.3872 42.0218C30.3872 40.9321 30.8613 39.887 31.7052 39.1165C32.5491 38.346 33.6937 37.9131 34.8872 37.9131H52.8872C54.0807 37.9131 55.2253 38.346 56.0692 39.1165C56.9131 39.887 57.3872 40.9321 57.3872 42.0218V58.4566C57.3872 59.5463 56.9131 60.5913 56.0692 61.3618C55.2253 62.1324 54.0807 62.5653 52.8872 62.5653H34.8872C33.6937 62.5653 32.5491 62.1324 31.7052 61.3618C30.8613 60.5913 30.3872 59.5463 30.3872 58.4566V42.0218ZM49.8872 48.8696H45.3872V42.0218L37.8872 51.6087H42.3872V58.4566L49.8872 48.8696Z" fill="#333647"/>
<path d="M17.2363 108L13.7988 96.7988H13.7109C13.724 97.0658 13.7435 97.4694 13.7695 98.0098C13.8021 98.5436 13.8314 99.1133 13.8574 99.7188C13.8835 100.324 13.8965 100.871 13.8965 101.359V108H11.1914V93.7227H15.3125L18.6914 104.641H18.75L22.334 93.7227H26.4551V108H23.6328V101.242C23.6328 100.793 23.6393 100.275 23.6523 99.6895C23.6719 99.1035 23.6947 98.5469 23.7207 98.0195C23.7467 97.4857 23.7663 97.0853 23.7793 96.8184H23.6914L20.0098 108H17.2363ZM39.7461 102.521C39.7461 103.433 39.6224 104.24 39.375 104.943C39.1341 105.646 38.7793 106.242 38.3105 106.73C37.8483 107.212 37.2884 107.577 36.6309 107.824C35.9798 108.072 35.2441 108.195 34.4238 108.195C33.6556 108.195 32.9492 108.072 32.3047 107.824C31.6667 107.577 31.11 107.212 30.6348 106.73C30.166 106.242 29.8014 105.646 29.541 104.943C29.2871 104.24 29.1602 103.433 29.1602 102.521C29.1602 101.311 29.375 100.285 29.8047 99.4453C30.2344 98.6055 30.8464 97.9674 31.6406 97.5312C32.4349 97.0951 33.3822 96.877 34.4824 96.877C35.5046 96.877 36.4095 97.0951 37.1973 97.5312C37.9915 97.9674 38.6133 98.6055 39.0625 99.4453C39.5182 100.285 39.7461 101.311 39.7461 102.521ZM32.1973 102.521C32.1973 103.238 32.2754 103.84 32.4316 104.328C32.5879 104.816 32.832 105.184 33.1641 105.432C33.4961 105.679 33.929 105.803 34.4629 105.803C34.9902 105.803 35.4167 105.679 35.7422 105.432C36.0742 105.184 36.3151 104.816 36.4648 104.328C36.6211 103.84 36.6992 103.238 36.6992 102.521C36.6992 101.799 36.6211 101.2 36.4648 100.725C36.3151 100.243 36.0742 99.8815 35.7422 99.6406C35.4102 99.3997 34.9772 99.2793 34.4434 99.2793C33.6556 99.2793 33.0827 99.5495 32.7246 100.09C32.373 100.63 32.1973 101.441 32.1973 102.521ZM44.8047 108L40.6445 97.082H43.7598L45.8691 103.303C45.9863 103.667 46.0775 104.051 46.1426 104.455C46.2142 104.859 46.263 105.22 46.2891 105.539H46.3672C46.3867 105.194 46.4323 104.826 46.5039 104.436C46.582 104.045 46.6829 103.667 46.8066 103.303L48.9062 97.082H52.0215L47.8613 108H44.8047ZM56.5723 97.082V108H53.5938V97.082H56.5723ZM55.0879 92.8047C55.5306 92.8047 55.9115 92.9089 56.2305 93.1172C56.5495 93.319 56.709 93.6999 56.709 94.2598C56.709 94.8132 56.5495 95.1973 56.2305 95.4121C55.9115 95.6204 55.5306 95.7246 55.0879 95.7246C54.6387 95.7246 54.2546 95.6204 53.9355 95.4121C53.623 95.1973 53.4668 94.8132 53.4668 94.2598C53.4668 93.6999 53.623 93.319 53.9355 93.1172C54.2546 92.9089 54.6387 92.8047 55.0879 92.8047ZM64.1016 93.7227C65.3971 93.7227 66.4648 93.8789 67.3047 94.1914C68.151 94.5039 68.7793 94.9759 69.1895 95.6074C69.5996 96.2389 69.8047 97.0365 69.8047 98C69.8047 98.651 69.681 99.2207 69.4336 99.709C69.1862 100.197 68.8607 100.611 68.457 100.949C68.0534 101.288 67.6172 101.564 67.1484 101.779L71.3477 108H67.9883L64.5801 102.521H62.9688V108H59.9414V93.7227H64.1016ZM63.8867 96.2031H62.9688V100.061H63.9453C64.9479 100.061 65.6641 99.8945 66.0938 99.5625C66.5299 99.224 66.748 98.7292 66.748 98.0781C66.748 97.401 66.5137 96.9193 66.0449 96.6328C65.5827 96.3464 64.8633 96.2031 63.8867 96.2031ZM77.4121 96.877C78.4212 96.877 79.2904 97.0723 80.0195 97.4629C80.7487 97.847 81.3118 98.4069 81.709 99.1426C82.1061 99.8783 82.3047 100.777 82.3047 101.838V103.283H75.2637C75.2962 104.123 75.5469 104.784 76.0156 105.266C76.4909 105.741 77.1484 105.979 77.9883 105.979C78.6849 105.979 79.3229 105.907 79.9023 105.764C80.4818 105.62 81.0775 105.406 81.6895 105.119V107.424C81.1491 107.691 80.5827 107.886 79.9902 108.01C79.4043 108.133 78.6914 108.195 77.8516 108.195C76.7578 108.195 75.7878 107.993 74.9414 107.59C74.1016 107.186 73.4408 106.571 72.959 105.744C72.4837 104.917 72.2461 103.876 72.2461 102.619C72.2461 101.343 72.4609 100.282 72.8906 99.4355C73.3268 98.5827 73.9323 97.9447 74.707 97.5215C75.4818 97.0918 76.3835 96.877 77.4121 96.877ZM77.4316 98.9961C76.8522 98.9961 76.3704 99.1816 75.9863 99.5527C75.6087 99.9238 75.3906 100.507 75.332 101.301H79.5117C79.5052 100.858 79.4238 100.464 79.2676 100.119C79.1178 99.7741 78.89 99.5007 78.584 99.2988C78.2845 99.097 77.9004 98.9961 77.4316 98.9961ZM90.9277 96.877C92.0931 96.877 93.0306 97.196 93.7402 97.834C94.4499 98.4655 94.8047 99.4811 94.8047 100.881V108H91.8262V101.623C91.8262 100.842 91.6829 100.253 91.3965 99.8555C91.1165 99.4583 90.6738 99.2598 90.0684 99.2598C89.1569 99.2598 88.5352 99.569 88.2031 100.188C87.8711 100.806 87.7051 101.698 87.7051 102.863V108H84.7266V97.082H87.002L87.4023 98.4785H87.5684C87.8027 98.1009 88.0924 97.7949 88.4375 97.5605C88.7891 97.3262 89.1764 97.1536 89.5996 97.043C90.0293 96.9323 90.472 96.877 90.9277 96.877ZM102.471 105.822C102.796 105.822 103.112 105.79 103.418 105.725C103.73 105.66 104.04 105.578 104.346 105.48V107.697C104.027 107.84 103.63 107.958 103.154 108.049C102.686 108.146 102.171 108.195 101.611 108.195C100.96 108.195 100.374 108.091 99.8535 107.883C99.3392 107.668 98.9323 107.3 98.6328 106.779C98.3398 106.252 98.1934 105.52 98.1934 104.582V99.3184H96.7676V98.0586L98.4082 97.0625L99.2676 94.7578H101.172V97.082H104.229V99.3184H101.172V104.582C101.172 104.999 101.289 105.311 101.523 105.52C101.764 105.721 102.08 105.822 102.471 105.822Z" fill="#333647"/>
</g>
<defs>
<clipPath id="clip0_2001_101">
<rect width="108" height="108" fill="white"/>
</clipPath>
</defs>
</svg>
